<?xml version="1.0" encoding="UTF-8"?>
<svg width="1080" height="260" viewBox="0 0 1080 260" fill="none"
     xmlns="http://www.w3.org/2000/svg" role="img" aria-label="GitHub stats card">
  <defs>
    <linearGradient id="bg" x1="0" y1="0" x2="1080" y2="260" gradientUnits="userSpaceOnUse">
      <stop stop-color="#070B14"/>
      <stop offset="1" stop-color="#0B1220"/>
    </linearGradient>

    <linearGradient id="accent" x1="0" y1="0" x2="1" y2="0">
      <stop stop-color="#60A5FA"/>
      <stop offset="0.55" stop-color="#A78BFA"/>
      <stop offset="1" stop-color="#34D399"/>
    </linearGradient>

    <linearGradient id="chartFill" x1="0" y1="0" x2="0" y2="1">
      <stop stop-color="#60A5FA" stop-opacity="0.22"/>
      <stop offset="1" stop-color="#60A5FA" stop-opacity="0"/>
    </linearGradient>

    <filter id="softShadow" x="-20%" y="-20%" width="140%" height="140%">
      <feDropShadow dx="0" dy="8" stdDeviation="12" flood-color="#000" flood-opacity="0.22"/>
    </filter>
  </defs>

  <rect x="14" y="14" width="1052" height="232"
        rx="20" fill="url(#bg)" stroke="#1F2937" filter="url(#softShadow)"/>

  <path d="M720 14 L940 14 L1040 246 L820 246 Z"
        fill="url(#accent)" opacity="0.06"/>

  <line x1="430" y1="52" x2="430" y2="208" stroke="#1F2937"/>
  <line x1="750" y1="52" x2="750" y2="208" stroke="#1F2937"/>

  <g transform="translate(48,58)">
    <g>
      <rect x="0" y="0" width="340" height="96" rx="14" fill="#0A0F1A" stroke="#1F2937"/>
      <line x1="12" y1="12.00" x2="328.00" y2="12.00" stroke="#1F2937" opacity="0.55"/>
<line x1="12" y1="30.00" x2="328.00" y2="30.00" stroke="#1F2937" opacity="0.55"/>
<line x1="12" y1="48.00" x2="328.00" y2="48.00" stroke="#1F2937" opacity="0.55"/>
<line x1="12" y1="66.00" x2="328.00" y2="66.00" stroke="#1F2937" opacity="0.55"/>
<line x1="12" y1="84.00" x2="328.00" y2="84.00" stroke="#1F2937" opacity="0.55"/>
      <path d="M 12.00 75.53 L 22.90 62.82 L 33.79 58.59 L 44.69 12.00 L 55.59 75.53 L 66.48 75.53 L 77.38 41.65 L 88.28 48.00 L 99.17 60.71 L 110.07 52.24 L 120.97 39.53 L 131.86 71.29 L 142.76 58.59 L 153.66 33.18 L 164.55 56.47 L 175.45 75.53 L 186.34 33.18 L 197.24 52.24 L 208.14 75.53 L 219.03 75.53 L 229.93 20.47 L 240.83 45.88 L 251.72 39.53 L 262.62 62.82 L 273.52 52.24 L 284.41 69.18 L 295.31 75.53 L 306.21 37.41 L 317.10 31.06 L 328.00 71.29 L 328.00 84.00 L 12.00 84.00 Z" fill="url(#chartFill)"/>
      <path d="M 12.00 75.53 L 22.90 62.82 L 33.79 58.59 L 44.69 12.00 L 55.59 75.53 L 66.48 75.53 L 77.38 41.65 L 88.28 48.00 L 99.17 60.71 L 110.07 52.24 L 120.97 39.53 L 131.86 71.29 L 142.76 58.59 L 153.66 33.18 L 164.55 56.47 L 175.45 75.53 L 186.34 33.18 L 197.24 52.24 L 208.14 75.53 L 219.03 75.53 L 229.93 20.47 L 240.83 45.88 L 251.72 39.53 L 262.62 62.82 L 273.52 52.24 L 284.41 69.18 L 295.31 75.53 L 306.21 37.41 L 317.10 31.06 L 328.00 71.29" stroke="url(#accent)" stroke-width="2.6" fill="none"/>
      <text x="12" y="86" fill="#6B7280" font-size="11" font-family="ui-sans-serif, system-ui">Last 30 days</text>
      <text x="328" y="18" text-anchor="end" fill="#6B7280" font-size="11" font-family="ui-sans-serif, system-ui">max 34</text>
    </g>

    <g transform="translate(0,134)">
      <text x="0" y="0" fill="#E5E7EB" font-size="30" font-weight="800"
            font-family="ui-sans-serif, system-ui, -apple-system, Segoe UI, Roboto">1,112</text>

      <text x="104" y="0" fill="#9CA3AF" font-size="14" font-weight="600"
        font-family="ui-sans-serif, system-ui">Total contributions</text>


      <text x="0" y="30" fill="#6B7280" font-size="12" font-family="ui-sans-serif, system-ui">Last active</text>
      <text x="74" y="30" fill="#E5E7EB" font-size="12" font-weight="650" font-family="ui-sans-serif, system-ui">2025-12-17</text>
    </g>
  </g>

  <g>
    <circle cx="590" cy="108" r="52" stroke="#1F2937" stroke-width="10"/>
    <circle cx="590" cy="108" r="52" stroke="url(#accent)" stroke-width="10"
      stroke-linecap="round" stroke-dasharray="326.73 326.73"
      transform="rotate(-90 590 108)"/>

    <text x="590" y="124" text-anchor="middle" fill="#E5E7EB"
      font-size="40" font-weight="850" font-family="ui-sans-serif, system-ui">106</text>

    <text x="590" y="182" text-anchor="middle" fill="#9CA3AF"
      font-size="14" font-family="ui-sans-serif, system-ui">106-day commit streak</text>

    <text x="590" y="202" text-anchor="middle" fill="#6B7280"
      font-size="12" font-family="ui-sans-serif, system-ui">Coding consistently for 106 days in a row.</text>
  </g>

  <g transform="translate(776,66)">
    
        <g transform="translate(0,0)">
          <g transform="translate(0,-15)">
            <svg x="0" y="0" width="20" height="20" viewBox="0 0 24 24" fill="none" xmlns="http://www.w3.org/2000/svg">
              <path d="M12 2.2l2.9 6 6.6.9-4.8 4.6 1.2 6.5L12 17.7 6.1 20.2l1.2-6.5-4.8-4.6 6.6-.9L12 2.2z" fill="#22C55E" opacity="0.95"/>
            </svg>
        </g>
        <text x="30" y="0" fill="#22C55E" font-size="14.5" font-weight="650" font-family="ui-sans-serif, system-ui">Total Stars:</text>
        <text x="186" y="0" fill="#86EFAC" font-size="14.5" font-weight="850" font-family="ui-sans-serif, system-ui">14</text>
       </g>

        <g transform="translate(0,32)">
          <g transform="translate(0,-15)">
            <svg x="0" y="0" width="20" height="20" viewBox="0 0 24 24" fill="none" xmlns="http://www.w3.org/2000/svg">
              <path d="M9 12a3 3 0 1 0 6 0 3 3 0 0 0-6 0Zm-7 0h4m8 0h8" stroke="#22C55E" stroke-width="2" stroke-linecap="round" stroke-linejoin="round" opacity="0.95"/>
            </svg>
        </g>
        <text x="30" y="0" fill="#22C55E" font-size="14.5" font-weight="650" font-family="ui-sans-serif, system-ui">Total Commits:</text>
        <text x="186" y="0" fill="#86EFAC" font-size="14.5" font-weight="850" font-family="ui-sans-serif, system-ui">617</text>
       </g>

        <g transform="translate(0,64)">
          <g transform="translate(0,-15)">
            <svg x="0" y="0" width="20" height="20" viewBox="0 0 24 24" fill="none" xmlns="http://www.w3.org/2000/svg">
              <path d="M6 4v16m0-13a2 2 0 1 0 0-4 2 2 0 0 0 0 4Zm0 14a2 2 0 1 0 0-4 2 2 0 0 0 0 4Zm6-14h6a2 2 0 0 1 2 2v7m0 0a2 2 0 1 0 0 4 2 2 0 0 0 0-4Z" stroke="#22C55E" stroke-width="2" stroke-linecap="round" stroke-linejoin="round" opacity="0.95"/>
            </svg>
        </g>
        <text x="30" y="0" fill="#22C55E" font-size="14.5" font-weight="650" font-family="ui-sans-serif, system-ui">Total PRs:</text>
        <text x="186" y="0" fill="#86EFAC" font-size="14.5" font-weight="850" font-family="ui-sans-serif, system-ui">0</text>
       </g>

        <g transform="translate(0,96)">
          <g transform="translate(0,-15)">
            <svg x="0" y="0" width="20" height="20" viewBox="0 0 24 24" fill="none" xmlns="http://www.w3.org/2000/svg">
              <path d="M12 2a10 10 0 1 0 0 20 10 10 0 0 0 0-20Zm0 6v6m0 4h.01" stroke="#22C55E" stroke-width="2" stroke-linecap="round" stroke-linejoin="round" opacity="0.95"/>
            </svg>
        </g>
        <text x="30" y="0" fill="#22C55E" font-size="14.5" font-weight="650" font-family="ui-sans-serif, system-ui">Total Issues:</text>
        <text x="186" y="0" fill="#86EFAC" font-size="14.5" font-weight="850" font-family="ui-sans-serif, system-ui">0</text>
       </g>

        <g transform="translate(0,128)">
          <g transform="translate(0,-15)">
            <svg x="0" y="0" width="20" height="20" viewBox="0 0 24 24" fill="none" xmlns="http://www.w3.org/2000/svg">
              <path d="M4 6h16M4 10h16M4 14h16M4 18h16" stroke="#22C55E" stroke-width="2" stroke-linecap="round" stroke-linejoin="round" opacity="0.95"/>
            </svg>
        </g>
        <text x="30" y="0" fill="#22C55E" font-size="14.5" font-weight="650" font-family="ui-sans-serif, system-ui">Contributed to:</text>
        <text x="186" y="0" fill="#86EFAC" font-size="14.5" font-weight="850" font-family="ui-sans-serif, system-ui">20</text>
       </g>
  </g>
</svg>