<?xml version="1.0" encoding="UTF-8"?>
<svg width="960" height="240" viewBox="0 0 960 240" fill="none"
     xmlns="http://www.w3.org/2000/svg" role="img" aria-label="GitHub pro stats card">
  <defs>
    <linearGradient id="bg" x1="0" y1="0" x2="960" y2="240" gradientUnits="userSpaceOnUse">
      <stop stop-color="#070B14"/>
      <stop offset="1" stop-color="#0B1220"/>
    </linearGradient>

    <linearGradient id="accent" x1="0" y1="0" x2="1" y2="0">
      <stop stop-color="#60A5FA"/>
      <stop offset="0.55" stop-color="#A78BFA"/>
      <stop offset="1" stop-color="#34D399"/>
    </linearGradient>

    <linearGradient id="chartFill" x1="0" y1="0" x2="0" y2="1">
      <stop stop-color="#60A5FA" stop-opacity="0.22"/>
      <stop offset="1" stop-color="#60A5FA" stop-opacity="0"/>
    </linearGradient>

    <filter id="softShadow" x="-20%" y="-20%" width="140%" height="140%">
      <feDropShadow dx="0" dy="8" stdDeviation="12" flood-color="#000" flood-opacity="0.22"/>
    </filter>
  </defs>

  <rect x="14" y="14" width="932" height="212"
        rx="20" fill="url(#bg)" stroke="#1F2937" filter="url(#softShadow)"/>

  <path d="M640 14 L840 14 L920 226 L720 226 Z"
        fill="url(#accent)" opacity="0.06"/>

  <line x1="320" y1="52" x2="320" y2="188" stroke="#1F2937"/>
  <line x1="640" y1="52" x2="640" y2="188" stroke="#1F2937"/>

  <g transform="translate(52,64)">
    <text x="0" y="0" fill="#E5E7EB" font-size="38" font-weight="750"
          font-family="ui-sans-serif, system-ui, -apple-system, Segoe UI, Roboto">1,097</text>
    <text x="0" y="28" fill="#9CA3AF" font-size="14"
          font-family="ui-sans-serif, system-ui">Total contributions</text>

    <g transform="translate(0,68)">
      <rect x="0" y="0" width="268" height="36" rx="14" fill="#0A0F1A" stroke="#1F2937"/>
      <text x="14" y="23" fill="#9CA3AF" font-size="12" font-family="ui-sans-serif, system-ui">Last active</text>
      <text x="98" y="23" fill="#E5E7EB" font-size="12" font-weight="650" font-family="ui-sans-serif, system-ui">2025-12-16</text>
    </g>

    <text x="0" y="150" fill="#6B7280" font-size="12" font-family="ui-sans-serif, system-ui">
      Auto-updated via GitHub Actions
    </text>
  </g>

  <g transform="translate(360,52)">
    <circle cx="90" cy="74" r="48" stroke="#1F2937" stroke-width="10"/>
    <circle cx="90" cy="74" r="48" stroke="url(#accent)" stroke-width="10"
      stroke-linecap="round" stroke-dasharray="301.59 301.59"
      transform="rotate(-90 90 74)"/>

    <text x="90" y="84" text-anchor="middle" fill="#E5E7EB"
      font-size="36" font-weight="800" font-family="ui-sans-serif, system-ui">105</text>

    <text x="90" y="132" text-anchor="middle" fill="#9CA3AF"
      font-size="14" font-family="ui-sans-serif, system-ui">105-day commit streak</text>

    <text x="90" y="152" text-anchor="middle" fill="#6B7280"
      font-size="12" font-family="ui-sans-serif, system-ui">Coding consistently for 105 days in a row.</text>
  </g>

  <g transform="translate(668,64)">
    <text x="0" y="0" fill="#E5E7EB" font-size="38" font-weight="750"
          font-family="ui-sans-serif, system-ui">105</text>
    <text x="0" y="28" fill="#9CA3AF" font-size="14"
          font-family="ui-sans-serif, system-ui">Longest streak</text>

    <g transform="translate(0,56)">
      <rect x="0" y="0" width="262" height="92" rx="14" fill="#0A0F1A" stroke="#1F2937"/>

      <line x1="12" y1="12.00" x2="250.00" y2="12.00" stroke="#1F2937" opacity="0.55"/>
<line x1="12" y1="29.00" x2="250.00" y2="29.00" stroke="#1F2937" opacity="0.55"/>
<line x1="12" y1="46.00" x2="250.00" y2="46.00" stroke="#1F2937" opacity="0.55"/>
<line x1="12" y1="63.00" x2="250.00" y2="63.00" stroke="#1F2937" opacity="0.55"/>
<line x1="12" y1="80.00" x2="250.00" y2="80.00" stroke="#1F2937" opacity="0.55"/>

      <path d="M 12.00 70.00 L 20.21 72.00 L 28.41 60.00 L 36.62 56.00 L 44.83 12.00 L 53.03 72.00 L 61.24 72.00 L 69.45 40.00 L 77.66 46.00 L 85.86 58.00 L 94.07 50.00 L 102.28 38.00 L 110.48 68.00 L 118.69 56.00 L 126.90 32.00 L 135.10 54.00 L 143.31 72.00 L 151.52 32.00 L 159.72 50.00 L 167.93 72.00 L 176.14 72.00 L 184.34 20.00 L 192.55 44.00 L 200.76 38.00 L 208.97 60.00 L 217.17 50.00 L 225.38 66.00 L 233.59 72.00 L 241.79 36.00 L 250.00 48.00 L 250.00 80.00 L 12.00 80.00 Z" fill="url(#chartFill)"/>
      <path d="M 12.00 70.00 L 20.21 72.00 L 28.41 60.00 L 36.62 56.00 L 44.83 12.00 L 53.03 72.00 L 61.24 72.00 L 69.45 40.00 L 77.66 46.00 L 85.86 58.00 L 94.07 50.00 L 102.28 38.00 L 110.48 68.00 L 118.69 56.00 L 126.90 32.00 L 135.10 54.00 L 143.31 72.00 L 151.52 32.00 L 159.72 50.00 L 167.93 72.00 L 176.14 72.00 L 184.34 20.00 L 192.55 44.00 L 200.76 38.00 L 208.97 60.00 L 217.17 50.00 L 225.38 66.00 L 233.59 72.00 L 241.79 36.00 L 250.00 48.00" stroke="url(#accent)" stroke-width="2.6" fill="none"/>

      <text x="12" y="82" fill="#6B7280" font-size="11" font-family="ui-sans-serif, system-ui">Last 30 days</text>
      <text x="250" y="18" text-anchor="end" fill="#6B7280" font-size="11" font-family="ui-sans-serif, system-ui">max 34</text>
    </g>
  </g>
</svg>